<svg width="40" height="40" viewBox="0 0 40 40" fill="none" xmlns="http://www.w3.org/2000/svg">
<rect width="40" height="40" rx="5" fill="#FC7942"/>
<path d="M20.6 33.6C29.64 33.6 33.16 29.52 33.16 24.92C33.16 21.48 31.4 18.12 24.84 17.16L16.44 15.92C15 15.72 14.52 15.32 14.52 14.48C14.52 13.32 15.36 12.8 19.2 12.8C24.24 12.8 25.08 13.44 25.08 15.36V15.96H32.6V15.72C32.6 9.72 28.52 6 20 6C10.32 6 7 10.48 7 14.76C7 19.08 9.52 21.76 14.52 22.44L22.92 23.56C25.12 23.84 25.64 24.24 25.64 25.2C25.64 26.4 25.16 26.76 20.6 26.76C15.56 26.76 14.92 26.28 14.92 24.48V23.64H7.4V23.88C7.4 30.68 12.4 33.6 20.6 33.6Z" fill="#131313"/>
</svg>
