<svg width="132" height="27" viewBox="0 0 132 27" fill="none" xmlns="http://www.w3.org/2000/svg">
<g clip-path="url(#clip0_1_4)">
<path d="M10.88 22.08C18.112 22.08 20.928 18.816 20.928 15.136C20.928 12.384 19.52 9.696 14.272 8.928L7.552 7.936C6.4 7.776 6.016 7.456 6.016 6.784C6.016 5.856 6.688 5.44 9.76 5.44C13.792 5.44 14.464 5.952 14.464 7.488V7.968H20.48V7.776C20.48 2.976 17.216 0 10.4 0C2.656 0 0 3.584 0 7.008C0 10.464 2.016 12.608 6.016 13.152L12.736 14.048C14.496 14.272 14.912 14.592 14.912 15.36C14.912 16.32 14.528 16.608 10.88 16.608C6.848 16.608 6.336 16.224 6.336 14.784V14.112H0.32V14.304C0.32 19.744 4.32 22.08 10.88 22.08Z" fill="#131313"/>
<path d="M28.371 21.76V13.44C28.371 11.36 29.043 10.688 31.827 10.688C34.579 10.688 35.443 11.392 35.443 13.632V21.76H41.459V11.616C41.459 8.032 39.411 5.312 35.123 5.312C30.995 5.312 29.203 7.808 28.691 10.528H28.371V0.32H22.355V21.76H28.371Z" fill="#131313"/>
<path d="M52.1893 22.08C57.7893 22.08 61.5973 18.912 61.5973 13.696C61.5973 8.448 57.7893 5.312 52.1893 5.312C46.5893 5.312 42.7812 8.448 42.7812 13.696C42.7812 18.912 46.5893 22.08 52.1893 22.08ZM52.1893 16.768C49.4693 16.768 48.7332 16.032 48.7332 13.696C48.7332 11.36 49.4693 10.592 52.1893 10.592C54.9093 10.592 55.6453 11.36 55.6453 13.696C55.6453 16.032 54.9093 16.768 52.1893 16.768Z" fill="#131313"/>
<path d="M69.0585 27.2V17.6H69.3785C69.8585 20.288 71.6505 22.08 75.4585 22.08C80.1945 22.08 82.8505 18.944 82.8505 13.696C82.8505 8.48 80.1305 5.312 75.2025 5.312C71.4265 5.312 69.5065 6.784 68.9945 9.984H68.6745V5.632H63.0425V27.2H69.0585ZM69.0585 13.888V13.664C69.0585 11.328 70.3385 10.816 73.0265 10.816C75.8105 10.816 76.7705 11.552 76.7705 13.696C76.7705 15.84 75.8105 16.608 73.0265 16.608C70.3385 16.608 69.0585 16.16 69.0585 13.888Z" fill="#131313"/>
<path d="M90.4647 27.2V17.6H90.7847C91.2647 20.288 93.0567 22.08 96.8647 22.08C101.601 22.08 104.257 18.944 104.257 13.696C104.257 8.48 101.537 5.312 96.6087 5.312C92.8327 5.312 90.9127 6.784 90.4007 9.984H90.0807V5.632H84.4487V27.2H90.4647ZM90.4647 13.888V13.664C90.4647 11.328 91.7447 10.816 94.4327 10.816C97.2167 10.816 98.1768 11.552 98.1768 13.696C98.1768 15.84 97.2167 16.608 94.4327 16.608C91.7447 16.608 90.4647 16.16 90.4647 13.888Z" fill="#131313"/>
<path d="M111.871 4.16V0.32H105.855V4.16H111.871ZM111.871 21.76V5.632H105.855V21.76H111.871Z" fill="#131313"/>
<path d="M122.785 22.08C128.225 22.08 131.648 19.552 131.648 15.968V15.584H125.632V15.936C125.632 16.896 124.992 17.312 122.56 17.312C120 17.312 119.136 16.768 119.04 14.816H131.681C131.745 14.24 131.777 13.824 131.777 13.28C131.777 8.096 128.224 5.312 122.656 5.312C117.28 5.312 113.472 8.448 113.472 13.696C113.472 19.744 117.312 22.08 122.785 22.08ZM122.528 9.92C124.768 9.92 125.728 10.4 125.952 11.776H119.136C119.392 10.4 120.32 9.92 122.528 9.92Z" fill="#131313"/>
</g>
<defs>
<clipPath id="clip0_1_4">
<rect width="132" height="27" fill="white"/>
</clipPath>
</defs>
</svg>
